<svg version="1.2" baseProfile="tiny" viewBox="0 0 32 32" xmlns:xlink="http://www.w3.org/1999/xlink" xmlns="http://www.w3.org/2000/svg">
<path style="fill:#ffffff;" d="M29,2.5H3C2.724,2.5,2.5,2.724,2.5,3V29C2.5,29.276,2.724,29.5,3,29.5H29C29.276,29.5,29.5,29.276,29.5,29V3C29.5,2.724,29.276,2.5,29,2.5ZM25.188,25.187C25.1,25.274,24.986,25.318,24.871,25.318C24.756,25.318,24.642,25.274,24.554,25.187L16.115,16.748L7.745,25.119C7.657,25.206,7.543,25.25,7.428,25.25C7.313,25.25,7.199,25.206,7.111,25.119C6.936,24.944,6.936,24.661,7.111,24.486L15.482,16.115L7.043,7.676C6.868,7.501,6.868,7.218,7.043,7.043C7.218,6.868,7.501,6.868,7.676,7.043L16.115,15.482L24.521,7.076C24.696,6.901,24.979,6.901,25.155,7.076C25.33,7.251,25.33,7.534,25.155,7.709L16.749,16.115L25.188,24.554C25.362,24.729,25.362,25.013,25.188,25.187Z"/>
</svg>