<svg version="1.2" baseProfile="tiny" id="EdgeSVG_Ro6Ss" x="0px" y="0px" width="140.789px" height="120.326px" viewBox="0 0 140.789 120.326" xmlns:xlink="http://www.w3.org/1999/xlink" xmlns="http://www.w3.org/2000/svg">
  <linearGradient id="SVGID_1_" gradientUnits="userSpaceOnUse" x1="0" y1="60.1631" x2="140.7886" y2="60.1631">
    <stop offset="0.0982" style="stop-color:#000000;stop-opacity:0.5"/>
    <stop offset="1" style="stop-color:#000000;stop-opacity:0.5"/>
  </linearGradient>
  <path fill="url(#SVGID_1_)" d="M140.789,34.966v0.039v9.178v0.039c0,1.858-1.512,3.37-3.37,3.37h-9.217&#xD;&#xA;&#x9;&#x9;c-0.489,0-0.951-0.11-1.37-0.298v5.314h-3.16v15.109h3.16v5.347c0.01-0.004,0.021-0.006,0.03-0.01&#xD;&#xA;&#x9;&#x9;c0.134-0.059,0.278-0.097,0.421-0.138c0.076-0.022,0.146-0.054,0.224-0.07c0.225-0.047,0.457-0.074,0.695-0.074h9.217&#xD;&#xA;&#x9;&#x9;c1.858,0,3.37,1.512,3.37,3.37v0.039v9.178v0.039c0,1.858-1.512,3.37-3.37,3.37h-9.217c-0.489,0-0.951-0.11-1.37-0.297v5.736h-3.16&#xD;&#xA;&#x9;&#x9;v1.158h3.212v0.245v7.119v17.596v0h-16.527v0v-2.258h-1.594v2.259H32.459v-2.259h-1.938v2.258v0l-16.585,0l0.021-17.596v-7.363&#xD;&#xA;&#x9;&#x9;h0.037h3.123v-1.158h-3.16v-5.815c-0.419,0.188-0.881,0.297-1.37,0.297H3.37C1.512,88.69,0,87.178,0,85.32v-0.039v-9.178v-0.039&#xD;&#xA;&#x9;&#x9;c0-1.858,1.512-3.37,3.37-3.37h9.217c0.238,0,0.47,0.026,0.694,0.074c0.078,0.016,0.149,0.048,0.225,0.07&#xD;&#xA;&#x9;&#x9;c0.143,0.041,0.287,0.079,0.421,0.138c0.01,0.004,0.021,0.005,0.03,0.01v-5.268h3.16V52.608h-3.16v-5.394&#xD;&#xA;&#x9;&#x9;c-0.419,0.188-0.881,0.298-1.37,0.298H3.37c-1.858,0-3.37-1.512-3.37-3.37v-0.039v-9.178v-0.039c0-1.858,1.512-3.37,3.37-3.37&#xD;&#xA;&#x9;&#x9;h9.217c0.238,0,0.47,0.026,0.694,0.074c0.078,0.016,0.149,0.048,0.225,0.07c0.143,0.041,0.287,0.079,0.421,0.138&#xD;&#xA;&#x9;&#x9;c0.01,0.004,0.021,0.005,0.03,0.01v-5.689h3.16v-0.915h-3.16v-0.245v-7.363V0.245V0h16.527v0.245v1.77h1.975V0h76.304v2.259h1.594&#xD;&#xA;&#x9;&#x9;V0.245V0h16.527v0.245v17.352v7.363v0.245h-3.212v0.915h3.16v5.768c0.01-0.004,0.021-0.006,0.03-0.01&#xD;&#xA;&#x9;&#x9;c0.134-0.059,0.278-0.097,0.421-0.138c0.076-0.022,0.146-0.054,0.224-0.07c0.225-0.047,0.457-0.074,0.695-0.074h9.217&#xD;&#xA;&#x9;&#x9;C139.277,31.596,140.789,33.107,140.789,34.966z"/>
</svg>