<svg version="1.2" baseProfile="tiny" viewBox="0 0 43.045 42.734" xmlns:xlink="http://www.w3.org/1999/xlink" xmlns="http://www.w3.org/2000/svg">
<path style="fill:#ffffff;" d="M8.57,41.908a.262.262,0,0,1-.066-.173V31.874l-2.573.839a1.032,1.032,0,0,1-1.3-.671,1.065,1.065,0,0,1-.049-.343l.06-2.836a1.05,1.05,0,0,0-.713-1.014l-2.674-.884a1.041,1.041,0,0,1-.66-1.313.99.99,0,0,1,.159-.308l1.7-2.26a1.058,1.058,0,0,0,.014-1.237l-1.649-2.3a1.037,1.037,0,0,1,.537-1.609l2.693-.828a1.043,1.043,0,0,0,.735-1V13.278a1.036,1.036,0,0,1,1.033-1.04.986.986,0,0,1,.339.059l2.657.932a1.025,1.025,0,0,0,1.173-.37l1.657-2.3a1.029,1.029,0,0,1,1.683.021l1.6,2.329a1.029,1.029,0,0,0,1.165.4l2.676-.874a1.032,1.032,0,0,1,1.3.676,1.072,1.072,0,0,1,.051.339l-.058,2.839a1.042,1.042,0,0,0,.712,1.013l2.673.884a1.045,1.045,0,0,1,.661,1.316,1.077,1.077,0,0,1-.157.305l-1.7,2.262a1.045,1.045,0,0,0-.014,1.237l1.649,2.3a1.05,1.05,0,0,1-.232,1.456,1,1,0,0,1-.305.154l-2.693.819a1.04,1.04,0,0,0-.734,1v2.837a1.036,1.036,0,0,1-1.033,1.041.987.987,0,0,1-.34-.059l-2.274-.8v9.185a.251.251,0,0,1-.42.191l-3.287-3a.256.256,0,0,0-.35,0l-3.288,3a.249.249,0,0,1-.171.067A.254.254,0,0,1,8.57,41.908Zm7.277.013.006,0v0Zm4.186-1.186V36.153l.654.232a1.386,1.386,0,0,0,1.767-.866,1.484,1.484,0,0,0,.077-.455V31.252a1.4,1.4,0,0,1,.982-1.338l3.618-1.1a1.4,1.4,0,0,0,.927-1.739,1.471,1.471,0,0,0-.206-.421L25.641,24.06a1.413,1.413,0,0,1,.017-1.668l2.277-3.038a1.409,1.409,0,0,0-.266-1.96,1.44,1.44,0,0,0-.408-.216l-3.591-1.183a1.4,1.4,0,0,1-.956-1.361l.077-3.812a1.393,1.393,0,0,0-1.358-1.427,1.344,1.344,0,0,0-.455.067l-3.594,1.173a1.375,1.375,0,0,1-1.565-.531l-2.147-3.133a1.382,1.382,0,0,0-2.26-.027l-.137.188V1.766A1.759,1.759,0,0,1,13.024,0.5h12.665V11.518a5.067,5.067,0,0,0,5.038,5.09H42.541V38.967a1.759,1.759,0,0,1-1.751,1.766v0Zm10.643-26.428a2.224,2.224,0,0,1-2.207-2.233V0h1.671a2.552,2.552,0,0,1,1.81.757l9.849,9.942a2.608,2.608,0,0,1,.745,1.833v1.276Z"/>
</svg>