<svg width="32" height="32" viewBox="0 0 32 32" fill="none" xmlns="http://www.w3.org/2000/svg">
<path d="M31 15.48H16.23C15.816 15.48 15.48 15.816 15.48 16.23V21.215H7.485V13.22H12.47C12.884 13.22 13.22 12.884 13.22 12.47V1C13.22 0.586 12.884 0.25 12.47 0.25H1C0.586 0.25 0.25 0.586 0.25 1V12.47C0.25 12.884 0.586 13.22 1 13.22H5.985V21.966C5.985 22.38 6.321 22.716 6.735 22.716H15.481V31C15.481 31.414 15.817 31.75 16.231 31.75H31C31.414 31.75 31.75 31.414 31.75 31V16.23C31.75 15.816 31.414 15.48 31 15.48ZM1.75 1.75H11.72V11.72H1.75V1.75ZM30.25 30.25H16.98V16.98H30.25V30.25Z" fill="#6A6A6A"/>
</svg>
