<svg version="1.2" baseProfile="tiny" id="EdgeSVG_NGGsN" x="0px" y="0px" width="68.725px" height="137.366px" viewBox="0 0 68.725 137.366" xmlns:xlink="http://www.w3.org/1999/xlink" xmlns="http://www.w3.org/2000/svg">
  <linearGradient id="SVGID_1_" gradientUnits="userSpaceOnUse" x1="0" y1="68.6826" x2="68.7251" y2="68.6826">
    <stop offset="0.1595" style="stop-color:#000000;stop-opacity:0.5"/>
    <stop offset="0.9387" style="stop-color:#000000;stop-opacity:0.5"/>
  </linearGradient>
  <path fill="url(#SVGID_1_)" d="M0.018,97.152l0.006-1.699l0.013-3.682l3.368,3.368l0.472-0.473&#xD;&#xA;&#x9;&#x9;c0.849-0.846,2.196-0.877,3.004-0.068l9.374,9.373c0.41,0.414,0.601,0.966,0.58,1.52l2.81-2.809&#xD;&#xA;&#x9;&#x9;c-0.571,0.02-1.124-0.192-1.518-0.586L0.032,84.003C0.028,84,0.026,83.996,0.023,83.993v-2.899&#xD;&#xA;&#x9;&#x9;c0.027-0.031,0.048-0.065,0.078-0.095l0.463-0.463l-0.525-0.527l-0.014-5.412l3.239,3.238l0.471-0.471&#xD;&#xA;&#x9;&#x9;c0.849-0.846,2.197-0.877,3.004-0.07L24.835,95.39c0.412,0.415,0.602,0.969,0.578,1.525l2.816-2.814&#xD;&#xA;&#x9;&#x9;c-0.573,0.021-1.128-0.192-1.522-0.588l-26.46-26.46c-0.085-0.086-0.157-0.18-0.224-0.276v-2.362&#xD;&#xA;&#x9;&#x9;c0.084-0.128,0.18-0.251,0.292-0.364l0.463-0.463l-0.74-0.742l-0.015-2.134L0,57.407l0.023,0.023l3.457,3.457l0.472-0.473&#xD;&#xA;&#x9;&#x9;c0.847-0.848,2.194-0.879,3.002-0.07l26.46,26.461c0.415,0.414,0.605,0.973,0.581,1.531l2.828-2.826&#xD;&#xA;&#x9;&#x9;c-0.032,0.002-0.064,0.01-0.097,0.01c-0.55-0.002-1.061-0.211-1.438-0.592L0.225,49.866c-0.077-0.077-0.14-0.163-0.202-0.249&#xD;&#xA;&#x9;&#x9;v-2.425c0.079-0.115,0.168-0.227,0.271-0.329L0.757,46.4L0.03,45.674l-0.007-4.207l-0.002-1.202l0.002,0.002l3.435,3.435&#xD;&#xA;&#x9;&#x9;l0.472-0.472c0.847-0.848,2.193-0.879,3.002-0.07l35.064,35.064c0.417,0.416,0.607,0.976,0.582,1.535l2.833-2.831&#xD;&#xA;&#x9;&#x9;c-0.034,0.001-0.067,0.011-0.102,0.011c-0.548,0-1.059-0.21-1.438-0.59L0.323,32.8c-0.121-0.12-0.216-0.255-0.299-0.396v-2.104&#xD;&#xA;&#x9;&#x9;c0.1-0.179,0.216-0.352,0.368-0.504l0.464-0.464l-0.831-0.831l-0.001-1.8l-0.002-3.601l0.002,0.002l3.532,3.53l0.472-0.472&#xD;&#xA;&#x9;&#x9;c0.847-0.847,2.194-0.878,3.002-0.069l43.548,43.549c0.418,0.418,0.608,0.979,0.582,1.541l2.835-2.834&#xD;&#xA;&#x9;&#x9;c-0.562,0.026-1.124-0.164-1.542-0.582L0.421,15.733c-0.17-0.17-0.299-0.373-0.398-0.59v-1.74c0.111-0.247,0.267-0.476,0.465-0.674&#xD;&#xA;&#x9;&#x9;l0.463-0.463l-0.915-0.915L0.023,0l5.629,5.599L2.667,8.583l0.985,0.983l0.47-0.47c0.847-0.848,2.194-0.879,3.005-0.072&#xD;&#xA;&#x9;&#x9;l52.034,52.034c0.419,0.419,0.608,0.982,0.581,1.546l1.459-1.457l7.524,7.523L0.034,137.366l-0.006-15.055l2.443-2.467&#xD;&#xA;&#x9;&#x9;c-0.569,0.02-1.118-0.192-1.509-0.586l-0.914-0.998c0-0.495-0.022-2.194-0.025-2.72c0-0.031,0-0.074,0-0.096l0-0.001&#xD;&#xA;&#x9;&#x9;c0.001-0.045,0.062-0.066,0.094-0.1l0.462-0.463l-0.557-0.557l-0.006-0.006l0.006-1.007l0.025-4.362l3.231,3.231l0.472-0.472&#xD;&#xA;&#x9;&#x9;c0.848-0.848,2.195-0.879,3.004-0.07l0.912,0.912c0.412,0.411,0.604,0.963,0.583,1.516l2.809-2.805&#xD;&#xA;&#x9;&#x9;c-0.554,0.019-1.105-0.173-1.517-0.584l-9.372-9.373c-0.057-0.057-0.1-0.121-0.148-0.183v-2.557&#xD;&#xA;&#x9;&#x9;c0.067-0.09,0.135-0.181,0.217-0.263l0.464-0.464l-0.681-0.682L0.018,97.152z"/>
</svg>