<svg version="1.2" baseProfile="tiny" viewBox="0 0 68.725 137.366" xmlns:xlink="http://www.w3.org/1999/xlink" xmlns="http://www.w3.org/2000/svg">
<path style="fill:#ffffff;" d="M0.0302,112.9176L1.9937,114.8819L0.8247,116.0523C0.3663,116.5083,0.3361,117.2199,0.756,117.6402L1.6693,118.5523C2.0892,118.9727,2.7999,118.9425,3.2589,118.4864L4.428,117.3161L5.7708,118.6554L7.056,117.371L5.7138,116.0289L6.8938,114.8503C7.3522,114.3915,7.3831,113.6786,6.9618,113.2596L6.0499,112.3475C5.63,111.9272,4.9193,111.9574,4.4603,112.4176L3.2802,113.5948L0.0447,110.3612L0.0302,112.9176M0.0378,93.1863L0.0289,95.7496L2.1181,97.8403L0.9477,99.012C0.4907,99.4695,0.4591,100.1796,0.879,100.6L10.251,109.9725C10.6709,110.3928,11.3829,110.3626,11.8399,109.9052L13.0103,108.7334L14.3518,110.0755L15.6377,108.7897L14.2969,107.4477L15.4748,106.2705C15.9318,105.813,15.9628,105.1001,15.5442,104.6784L6.1722,95.3073C5.7523,94.8869,5.041,94.9185,4.5812,95.3773L3.4039,96.5546L0.0378,93.1863M0.0412,76.0266L0.0467,78.6036L1.9772,80.5363L0.8082,81.7067C0.3512,82.1655,0.3189,82.8757,0.7388,83.296L18.8327,101.3898C19.2533,101.8102,19.966,101.7786,20.423,101.3198L21.5941,100.1494L22.9349,101.4915L24.2208,100.2071L22.8792,98.8651L24.0579,97.6865C24.5163,97.2276,24.5458,96.5175,24.1273,96.0944L6.0327,78.0005C5.6141,77.5816,4.9022,77.6145,4.4417,78.072L3.2658,79.2506L0.0412,76.0266L0.0412,76.0266M0.0268,58.849L0.0447,61.4383L2.1923,63.5867L1.0233,64.7571C0.5663,65.2159,0.5347,65.9261,0.9553,66.345L27.4151,92.8058C27.835,93.2276,28.547,93.1973,29.004,92.7399L30.1751,91.5682L31.5159,92.9102L32.8018,91.6245L31.4602,90.2824L32.6389,89.1052C33.0973,88.6464,33.1282,87.9335,32.7069,87.5131L6.2471,61.0523C5.8279,60.6334,5.1159,60.6636,4.6582,61.1224L3.4802,62.3023L0.0268,58.849L0.0268,58.849M0.0357,41.692L0.0399,44.2676L2.1717,46.4009L0.9999,47.5712C0.5429,48.0286,0.512,48.7402,0.9319,49.1592L35.9961,84.2218C36.416,84.6463,37.1287,84.6147,37.5857,84.1587L38.7568,82.9855L40.0983,84.3276L41.3841,83.0432L40.0433,81.6998L41.2199,80.5226C41.6783,80.0624,41.7092,79.3508,41.2879,78.9305L6.2251,43.8665C5.8059,43.4475,5.0932,43.4763,4.6362,43.9365L3.4582,45.1151L0.0357,41.692L0.0357,41.692M0.033,24.5253L0.0337,27.0968L2.27,29.3318L1.0982,30.5035C0.6412,30.9609,0.6103,31.6725,1.0302,32.0914L44.5778,75.6406C44.9977,76.0637,45.7111,76.0321,46.1688,75.5733L47.3398,74.4029L48.6807,75.745L49.9672,74.4592L48.625,73.1185L49.8029,71.9399C50.2613,71.4811,50.2923,70.7696,49.871,70.3479L6.3227,26.8001C5.9028,26.3798,5.1908,26.4114,4.7331,26.8702L3.5558,28.0474L0.033,24.5253L0.033,24.5253M0.0557,7.3862L0.0378,9.9384L2.3669,12.2654L1.1972,13.4358C0.7388,13.8946,0.7079,14.6061,1.1278,15.0251L53.1602,67.0593C53.5808,67.481,54.2928,67.4508,54.7511,66.992L55.9202,65.823L57.261,67.1637L58.5482,65.878L57.206,64.5373L58.3853,63.3573C58.843,62.8999,58.874,62.187,58.4527,61.7666L6.4203,9.7324C5.9997,9.3134,5.2877,9.345,4.83,9.8038L3.652,10.9797L0.0557,7.3862Z"/>
</svg>