<svg version="1.2" baseProfile="tiny" viewBox="0 0 45.500 40.000" xmlns:xlink="http://www.w3.org/1999/xlink" xmlns="http://www.w3.org/2000/svg">
<path style="fill:#ffffff;" d="M44.089,37.135L23.729,1.688c-0.185-0.32-0.524-0.518-0.894-0.519c-0.001,0-0.002,0-0.003,0    c-0.368,0-0.709,0.196-0.893,0.515L1.309,37.279c-0.186,0.32-0.186,0.714-0.001,1.034c0.185,0.319,0.525,0.517,0.895,0.517h41.076    c0.007,0,0.014,0,0.018,0c0.57,0,1.034-0.462,1.034-1.032C44.33,37.545,44.239,37.315,44.089,37.135z M22.829,4.27l6.828,11.887    h-0.188H15.94L22.829,4.27z M24.147,18.341l-1.631,1.853l-1.631-1.853h0.758v-1.729h1.749v1.729H24.147z M3.995,36.766    l10.908-18.82l0.369,2.581h14.492l0.439-3.083l0.038-0.269l11.253,19.591H3.995z M18.509,22.295c0-0.811,0.657-1.467,1.468-1.467    s1.468,0.656,1.468,1.467c0,0.81-0.658,1.468-1.468,1.468S18.509,23.105,18.509,22.295z M27.879,32.578    c0,0,0.429-0.045,0.472-0.052c0.387-0.063,0.684-0.396,0.684-0.801c0-0.447-0.364-0.811-0.812-0.811    c-0.114,0-1.531,0.217-1.531,0.217l0.032-3.997c0,0,0.062-0.374-0.313-0.778c-0.375-0.408-2.825-2.969-2.825-2.971    c-0.137-0.257-0.406-0.433-0.719-0.433c-0.119,0-0.232,0.024-0.334,0.071l-7.113,3.618c-0.328,0.106-0.565,0.412-0.565,0.775    c0,0.447,0.364,0.813,0.812,0.813c0.093,0,0.182-0.019,0.265-0.046l0.016,0.046l3.942-2.082c0,0-2.302,3.071-2.941,3.93    c-0.067,0.064-0.122,0.14-0.165,0.223c-0.055,0.11-0.086,0.232-0.086,0.363c0,0.448,0.364,0.812,0.813,0.812    c0.199,0,0.382-0.073,0.523-0.191v-0.001c0.097-0.082,0.175-0.186,0.226-0.307l3.446-4.685c0,0,0.18-0.291,0.35-0.144    c0.171,0.144,1.825,2.082,1.825,2.082s0.126,0.123,0,0.343c-0.122,0.215-2.015,3.651-2.075,3.763    c-0.001,0.001-0.001,0.002-0.003,0.004c-0.062,0.114-0.097,0.245-0.097,0.385c0,0.449,0.364,0.812,0.812,0.812    c0.051,0,0.101-0.005,0.148-0.014h0.001c0.01-0.002,0.02-0.004,0.029-0.005l2.654-0.418c0,0,0.436-0.093,0.562,0.032    c0.102,0.101,2.73,1.784,3.686,2.395c0.148,0.16,0.358,0.258,0.593,0.258c0.449,0,0.812-0.361,0.812-0.812    c0-0.381-0.261-0.697-0.614-0.786L27.879,32.578z M24.131,31.539c-0.134-0.008-0.103-0.101-0.066-0.144l0.94-1.356l0.156-0.264    l0.019,1.64L24.131,31.539z"/>
</svg>