<svg version="1.2" baseProfile="tiny" id="EdgeSVG_1pfV0" x="0px" y="0px" width="217.511px" height="122.268px" viewBox="0 0 217.511 122.268" xmlns:xlink="http://www.w3.org/1999/xlink" xmlns="http://www.w3.org/2000/svg">
  <linearGradient id="SVGID_2_" gradientUnits="userSpaceOnUse" x1="62.0854" y1="58.8496" x2="163.46" y2="-42.5249">
    <stop offset="0.1" style="stop-color:#FFF200"/>
    <stop offset="0.1001" style="stop-color:#000000"/>
    <stop offset="0.1999" style="stop-color:#000000"/>
    <stop offset="0.2" style="stop-color:#FFF200"/>
    <stop offset="0.3" style="stop-color:#FFF200"/>
    <stop offset="0.3001" style="stop-color:#000000"/>
    <stop offset="0.3999" style="stop-color:#000000"/>
    <stop offset="0.4" style="stop-color:#FFF200"/>
    <stop offset="0.5" style="stop-color:#FFF200"/>
    <stop offset="0.5001" style="stop-color:#000000"/>
    <stop offset="0.5999" style="stop-color:#000000"/>
    <stop offset="0.6" style="stop-color:#FFF200"/>
    <stop offset="0.7" style="stop-color:#FFF200"/>
    <stop offset="0.7001" style="stop-color:#000000"/>
    <stop offset="0.7999" style="stop-color:#000000"/>
    <stop offset="0.8" style="stop-color:#FFF200"/>
    <stop offset="0.9" style="stop-color:#FFF200"/>
    <stop offset="0.9001" style="stop-color:#000000"/>
  </linearGradient>
  <polygon fill="url(#SVGID_2_)" points="10.016,6.78 212.765,6.78 212.765,12.308 15.586,12.308 &#x9;"/>
  <linearGradient id="SVGID_3_" gradientUnits="userSpaceOnUse" x1="8.8931" y1="56.2656" x2="212.7651" y2="56.2656">
    <stop offset="0" style="stop-color:#000000;stop-opacity:0"/>
    <stop offset="1" style="stop-color:#000000;stop-opacity:0.2"/>
  </linearGradient>
  <polygon fill="url(#SVGID_3_)" points="8.893,5.662 212.765,5.662 212.765,106.869 110.829,106.869 &#x9;"/>
  <linearGradient id="SVGID_4_" gradientUnits="userSpaceOnUse" x1="110.8291" y1="5.6621" x2="110.8291" y2="106.8691">
    <stop offset="0.0172" style="stop-color:#000000;stop-opacity:0.55"/>
    <stop offset="0.0481" style="stop-color:#000000;stop-opacity:0"/>
    <stop offset="1" style="stop-color:#000000;stop-opacity:0.2"/>
  </linearGradient>
  <polygon fill="url(#SVGID_4_)" points="8.893,5.662 212.765,5.662 212.765,106.869 110.829,106.869 &#x9;"/>
  <linearGradient id="SVGID_5_" gradientUnits="userSpaceOnUse" x1="1.5" y1="3.7441" x2="216.0107" y2="3.7441">
    <stop offset="0" style="stop-color:#000000;stop-opacity:0"/>
    <stop offset="1" style="stop-color:#000000;stop-opacity:0.2"/>
  </linearGradient>
  <rect x="1.5" y="1.826" fill="url(#SVGID_5_)" width="214.511" height="3.836"/>
  <linearGradient id="SVGID_6_" gradientUnits="userSpaceOnUse" x1="17.7051" y1="-0.54" x2="232.2158" y2="-0.54">
    <stop offset="0" style="stop-color:#FFFFFF;stop-opacity:0.3"/>
    <stop offset="0.5052" style="stop-color:#FFFFFF;stop-opacity:0.6"/>
    <stop offset="1" style="stop-color:#FFFFFF;stop-opacity:0.3"/>
  </linearGradient>
  <rect x="17.705" y="-1.081" fill="url(#SVGID_6_)" width="214.511" height="1.081"/>
  <linearGradient id="SVGID_7_" gradientUnits="userSpaceOnUse" x1="1.5" y1="5.1221" x2="216.0107" y2="5.1221">
    <stop offset="0" style="stop-color:#000000;stop-opacity:0.55"/>
    <stop offset="1" style="stop-color:#000000;stop-opacity:0.45"/>
  </linearGradient>
  <rect x="1.5" y="4.582" fill="url(#SVGID_7_)" width="214.511" height="1.081"/>
  <linearGradient id="SVGID_8_" gradientUnits="userSpaceOnUse" x1="108.9028" y1="106.8691" x2="108.9028" y2="111.6118">
    <stop offset="0" style="stop-color:#000000;stop-opacity:0.2"/>
    <stop offset="0.5636" style="stop-color:#000000;stop-opacity:0.25"/>
    <stop offset="0.7526" style="stop-color:#000000;stop-opacity:0.35"/>
    <stop offset="0.7766" style="stop-color:#FFFFFF;stop-opacity:0.2"/>
    <stop offset="0.8282" style="stop-color:#000000;stop-opacity:0.2263"/>
    <stop offset="0.9244" style="stop-color:#000000;stop-opacity:0.3"/>
    <stop offset="0.9485" style="stop-color:#000000;stop-opacity:0.6"/>
  </linearGradient>
  <rect x="13.303" y="106.869" fill="url(#SVGID_8_)" width="191.2" height="4.743"/>
  <linearGradient id="SVGID_9_" gradientUnits="userSpaceOnUse" x1="90.9521" y1="99.623" x2="91.3154" y2="102.5813">
    <stop offset="0.2096" style="stop-color:#FFFFFF;stop-opacity:0.35"/>
    <stop offset="0.3299" style="stop-color:#000000;stop-opacity:0.2"/>
    <stop offset="0.7216" style="stop-color:#000000;stop-opacity:0.2"/>
    <stop offset="0.8076" style="stop-color:#000000;stop-opacity:0.55"/>
  </linearGradient>
  <polygon fill="url(#SVGID_9_)" points="78.116,104.077 104.838,100.921 102.358,98.459 77.429,101.284 &#x9;"/>
  <linearGradient id="SVGID_10_" gradientUnits="userSpaceOnUse" x1="38.6514" y1="105.9878" x2="38.8564" y2="107.6579">
    <stop offset="0.2096" style="stop-color:#FFFFFF;stop-opacity:0.35"/>
    <stop offset="0.3299" style="stop-color:#000000;stop-opacity:0.2"/>
    <stop offset="0.7216" style="stop-color:#000000;stop-opacity:0.2"/>
    <stop offset="0.8076" style="stop-color:#000000;stop-opacity:0.55"/>
  </linearGradient>
  <path fill="url(#SVGID_10_)" d="M42.466,105.52l-10.232,1.338l13.05,0.011C43.398,106.044,43.613,106.088,42.466,105.52z"/>
  <linearGradient id="SVGID_11_" gradientUnits="userSpaceOnUse" x1="57.894" y1="103.6919" x2="58.2301" y2="106.4292">
    <stop offset="0.2096" style="stop-color:#FFFFFF;stop-opacity:0.35"/>
    <stop offset="0.3299" style="stop-color:#000000;stop-opacity:0.2"/>
    <stop offset="0.7216" style="stop-color:#000000;stop-opacity:0.2"/>
    <stop offset="0.8076" style="stop-color:#000000;stop-opacity:0.55"/>
  </linearGradient>
  <path fill="url(#SVGID_11_)" d="M61.072,103.323l-4.38,0.517c-0.584,0.768-1,1.249-1.27,1.668c-0.28,0.435-0.397,0.89-0.37,1.294&#xD;&#xA;&#x9;&#x9;l3.901-0.461c0.083-0.102,0.171-0.205,0.267-0.31C59.528,105.694,60.244,104.707,61.072,103.323z"/>
  <linearGradient id="SVGID_12_" gradientUnits="userSpaceOnUse" x1="113.9189" y1="111.6118" x2="113.9189" y2="120.4414">
    <stop offset="0" style="stop-color:#000000;stop-opacity:0"/>
    <stop offset="0.0137" style="stop-color:#000000;stop-opacity:0.2"/>
    <stop offset="0.9725" style="stop-color:#000000;stop-opacity:0.3"/>
    <stop offset="0.9931" style="stop-color:#000000;stop-opacity:0.5"/>
  </linearGradient>
  <rect x="13.303" y="111.612" fill="url(#SVGID_12_)" width="201.233" height="8.83"/>
  <linearGradient id="SVGID_13_" gradientUnits="userSpaceOnUse" x1="13.3027" y1="112.2295" x2="214.5356" y2="112.2295">
    <stop offset="0" style="stop-color:#FFFFFF;stop-opacity:0.3"/>
    <stop offset="0.5052" style="stop-color:#FFFFFF;stop-opacity:0.6"/>
    <stop offset="1" style="stop-color:#FFFFFF;stop-opacity:0.3"/>
  </linearGradient>
  <rect x="13.303" y="111.612" fill="url(#SVGID_13_)" width="201.233" height="1.235"/>
  <linearGradient id="SVGID_14_" gradientUnits="userSpaceOnUse" x1="13.3027" y1="119.8232" x2="214.5356" y2="119.8232">
    <stop offset="0" style="stop-color:#000000;stop-opacity:0.55"/>
    <stop offset="1" style="stop-color:#000000;stop-opacity:0.45"/>
  </linearGradient>
  <rect x="13.303" y="119.206" fill="url(#SVGID_14_)" width="201.233" height="1.236"/>
  <linearGradient id="SVGID_15_" gradientUnits="userSpaceOnUse" x1="13.3027" y1="107.1895" x2="204.5029" y2="107.1895">
    <stop offset="0" style="stop-color:#FFFFFF;stop-opacity:0.3"/>
    <stop offset="0.5052" style="stop-color:#FFFFFF;stop-opacity:0.6"/>
    <stop offset="1" style="stop-color:#FFFFFF;stop-opacity:0.3"/>
  </linearGradient>
  <rect x="13.303" y="106.869" fill="url(#SVGID_15_)" width="191.2" height="0.641"/>
  <linearGradient id="SVGID_16_" gradientUnits="userSpaceOnUse" x1="162.687" y1="106.8691" x2="162.687" y2="120.4414">
    <stop offset="0" style="stop-color:#000000;stop-opacity:0.55"/>
    <stop offset="0.2062" style="stop-color:#000000;stop-opacity:0.36"/>
    <stop offset="0.622" style="stop-color:#000000;stop-opacity:0"/>
  </linearGradient>
  <polygon fill="url(#SVGID_16_)" points="110.829,106.869 113.919,120.441 214.545,120.441 214.535,111.612 204.503,111.612 &#xD;&#xA;&#x9;&#x9;204.503,106.869 &#x9;"/>
  <linearGradient id="SVGID_17_" gradientUnits="userSpaceOnUse" x1="17.7051" y1="80.5942" x2="78.7866" y2="80.5942">
    <stop offset="0" style="stop-color:#000000;stop-opacity:0.1"/>
    <stop offset="1" style="stop-color:#000000;stop-opacity:0.18"/>
  </linearGradient>
  <path fill="url(#SVGID_17_)" d="M55.059,106.869c-0.048-0.419,0.067-0.903,0.363-1.362c0.673-1.046,2.233-2.441,5.14-7.845&#xD;&#xA;&#x9;&#x9;c2.907-5.404,1.341-9.762-3.131-10.634c-4.471-0.871-6.484,3.138-8.496,5.229c-2.013,2.092-3.801,0-2.907-1.22&#xD;&#xA;&#x9;&#x9;c0.894-1.221,2.459-3.661,6.037-6.102c3.577-2.441,10.285-2.789,12.521,3.661c2.236,6.45-4.249,16.212-5.367,17.433&#xD;&#xA;&#x9;&#x9;c-0.271,0.296-0.484,0.581-0.679,0.838h20.247c-0.752-3.411-2.171-10.623-6.094-15.575c-5.929-7.489-35.828-36.975-35.828-36.975&#xD;&#xA;&#x9;&#x9;c-0.791,0.384-1.977,0.768-0.791,6.145c1.186,5.377-0.115,9.891-5.452,12.579s-10.477,4.033-11.465,4.225&#xD;&#xA;&#x9;&#x9;c-0.989,0.191-1.779,0.768-1.318,2.304c8.036,15.31,17.795,23.062,27.439,27.297H55.059z"/>
  <linearGradient id="SVGID_18_" gradientUnits="userSpaceOnUse" x1="48.2461" y1="54.3193" x2="48.2461" y2="106.8691">
    <stop offset="0" style="stop-color:#000000;stop-opacity:0.1"/>
    <stop offset="1" style="stop-color:#000000;stop-opacity:0.18"/>
  </linearGradient>
  <path fill="url(#SVGID_18_)" d="M55.059,106.869c-0.048-0.419,0.067-0.903,0.363-1.362c0.673-1.046,2.233-2.441,5.14-7.845&#xD;&#xA;&#x9;&#x9;c2.907-5.404,1.341-9.762-3.131-10.634c-4.471-0.871-6.484,3.138-8.496,5.229c-2.013,2.092-3.801,0-2.907-1.22&#xD;&#xA;&#x9;&#x9;c0.894-1.221,2.459-3.661,6.037-6.102c3.577-2.441,10.285-2.789,12.521,3.661c2.236,6.45-4.249,16.212-5.367,17.433&#xD;&#xA;&#x9;&#x9;c-0.271,0.296-0.484,0.581-0.679,0.838h20.247c-0.752-3.411-2.171-10.623-6.094-15.575c-5.929-7.489-35.828-36.975-35.828-36.975&#xD;&#xA;&#x9;&#x9;c-0.791,0.384-1.977,0.768-0.791,6.145c1.186,5.377-0.115,9.891-5.452,12.579s-10.477,4.033-11.465,4.225&#xD;&#xA;&#x9;&#x9;c-0.989,0.191-1.779,0.768-1.318,2.304c8.036,15.31,17.795,23.062,27.439,27.297H55.059z"/>
  <linearGradient id="SVGID_19_" gradientUnits="userSpaceOnUse" x1="18.7144" y1="86.0908" x2="74.7593" y2="78.2142">
    <stop offset="0.3849" style="stop-color:#FFFFFF;stop-opacity:0.25"/>
    <stop offset="0.4227" style="stop-color:#000000;stop-opacity:0.3"/>
  </linearGradient>
  <path fill="url(#SVGID_19_)" d="M55.059,106.869h-9.78c-9.645-4.236-19.403-11.988-27.439-27.297&#xD;&#xA;&#x9;&#x9;c-0.461-1.536,0.329-2.112,1.318-2.304c0.988-0.192,6.127-1.536,11.465-4.225s6.638-7.202,5.452-12.579&#xD;&#xA;&#x9;&#x9;c-1.187-5.377,0-5.761,0.791-6.145c0,0,29.898,29.485,35.828,36.975c3.922,4.953,5.342,12.165,6.094,15.575H58.54l0.538-0.688&#xD;&#xA;&#x9;&#x9;h0.909H77.91c-0.952-3.551-2.34-10.146-5.756-14.46c-5.479-6.92-32.033-32.718-35.425-36.52c-0.438,0.4-0.791,1.449,0.018,5.115&#xD;&#xA;&#x9;&#x9;c1.344,6.092-0.472,10.651-5.814,13.342c-5.372,2.705-10.629,4.088-11.645,4.285c-0.285,0.055-0.655,0.172-0.803,0.417&#xD;&#xA;&#x9;&#x9;c-0.151,0.249-0.09,0.644-0.004,0.953c7.011,13.331,16.075,22.052,26.943,26.867h8.987h0.7L55.059,106.869z"/>
  <linearGradient id="SVGID_20_" gradientUnits="userSpaceOnUse" x1="42.2573" y1="105.4746" x2="60.8878" y2="65.5214">
    <stop offset="0.3162" style="stop-color:#000000;stop-opacity:0.3"/>
    <stop offset="0.3436" style="stop-color:#FFFFFF;stop-opacity:0.15"/>
  </linearGradient>
  <path fill="url(#SVGID_20_)" d="M55.059,106.869h-9.78c-9.645-4.236-19.403-11.988-27.439-27.297&#xD;&#xA;&#x9;&#x9;c-0.461-1.536,0.329-2.112,1.318-2.304c0.988-0.192,6.127-1.536,11.465-4.225s6.638-7.202,5.452-12.579&#xD;&#xA;&#x9;&#x9;c-1.187-5.377,0-5.761,0.791-6.145c0,0,29.898,29.485,35.828,36.975c3.922,4.953,5.342,12.165,6.094,15.575H58.54l0.538-0.688&#xD;&#xA;&#x9;&#x9;h0.909H77.91c-0.952-3.551-2.34-10.146-5.756-14.46c-5.479-6.92-32.033-32.718-35.425-36.52c-0.438,0.4-0.791,1.449,0.018,5.115&#xD;&#xA;&#x9;&#x9;c1.344,6.092-0.472,10.651-5.814,13.342c-5.372,2.705-10.629,4.088-11.645,4.285c-0.285,0.055-0.655,0.172-0.803,0.417&#xD;&#xA;&#x9;&#x9;c-0.151,0.249-0.09,0.644-0.004,0.953c7.011,13.331,16.075,22.052,26.943,26.867h8.987h0.7L55.059,106.869z"/>
  <linearGradient id="SVGID_21_" gradientUnits="userSpaceOnUse" x1="55.4028" y1="82.625" x2="55.4028" y2="106.1938">
    <stop offset="0" style="stop-color:#000000;stop-opacity:0.1"/>
    <stop offset="1" style="stop-color:#000000;stop-opacity:0.18"/>
  </linearGradient>
  <path fill="url(#SVGID_21_)" d="M59.055,106.194c0.046-0.054,0.095-0.109,0.145-0.163c1.118-1.221,7.602-10.983,5.367-17.433&#xD;&#xA;&#x9;&#x9;c-2.236-6.45-8.944-6.102-12.521-3.661c-3.577,2.44-5.143,4.881-6.037,6.102c-0.895,1.22,0.894,3.312,2.907,1.22&#xD;&#xA;&#x9;&#x9;c2.012-2.092,4.025-6.101,8.496-5.229c4.472,0.872,6.037,5.229,3.131,10.634c-2.907,5.404-4.467,6.798-5.14,7.845&#xD;&#xA;&#x9;&#x9;c-0.146,0.226-0.247,0.458-0.307,0.685l-0.703-0.012c0.071-0.356,0.217-0.713,0.431-1.046c0.188-0.291,0.423-0.589,0.722-0.967&#xD;&#xA;&#x9;&#x9;c0.839-1.061,2.244-2.838,4.392-6.831c1.465-2.724,1.791-5.238,0.918-7.081c-0.634-1.337-1.87-2.219-3.575-2.552&#xD;&#xA;&#x9;&#x9;c-0.372-0.072-0.737-0.109-1.086-0.109c-2.526,0-4.132,1.968-5.548,3.704c-0.422,0.519-0.822,1.007-1.234,1.437&#xD;&#xA;&#x9;&#x9;c-0.875,0.91-1.688,1.101-2.215,1.101c-0.804,0-1.528-0.443-1.891-1.158c-0.341-0.673-0.285-1.458,0.147-2.047l0.261-0.363&#xD;&#xA;&#x9;&#x9;c0.971-1.353,2.595-3.617,5.943-5.901c1.624-1.107,3.709-1.743,5.723-1.743c3.714,0,6.57,2.095,7.836,5.748&#xD;&#xA;&#x9;&#x9;c2.251,6.492-3.658,15.751-5.25,17.808L59.055,106.194z"/>
  <linearGradient id="SVGID_22_" gradientUnits="userSpaceOnUse" x1="45.1357" y1="90.3721" x2="62.0059" y2="90.3721">
    <stop offset="0" style="stop-color:#FFFFFF;stop-opacity:0"/>
    <stop offset="0.5292" style="stop-color:#FFFFFF;stop-opacity:0.35"/>
    <stop offset="1" style="stop-color:#FFFFFF;stop-opacity:0.18"/>
  </linearGradient>
  <path fill="url(#SVGID_22_)" d="M47.194,93.837c0.527,0,1.339-0.191,2.214-1.101c0.413-0.429,0.812-0.918,1.235-1.437&#xD;&#xA;&#x9;&#x9;c1.416-1.736,3.021-3.704,5.547-3.704c0.349,0,0.714,0.037,1.087,0.109c1.705,0.333,2.941,1.215,3.574,2.552&#xD;&#xA;&#x9;&#x9;c0.195,0.412,0.327,0.859,0.403,1.332c0.332,0.327,0.575,0.729,0.748,1.167c0.088-2.985-1.594-5.143-4.594-5.727&#xD;&#xA;&#x9;&#x9;c-4.472-0.871-6.484,3.138-8.497,5.23c-1.546,1.607-2.955,0.744-3.122-0.296c-0.208,0.087-0.427,0.169-0.655,0.246&#xD;&#xA;&#x9;&#x9;c0.037,0.161,0.09,0.319,0.168,0.471C45.666,93.394,46.39,93.837,47.194,93.837z"/>
  <linearGradient id="SVGID_23_" gradientUnits="userSpaceOnUse" x1="59.0518" y1="100.0552" x2="64.9604" y2="100.0552">
    <stop offset="0" style="stop-color:#FFFFFF;stop-opacity:0"/>
    <stop offset="0.5292" style="stop-color:#FFFFFF;stop-opacity:0.35"/>
    <stop offset="1" style="stop-color:#FFFFFF;stop-opacity:0.18"/>
  </linearGradient>
  <path fill="url(#SVGID_23_)" d="M64.817,93.916c-0.947,5.51-4.784,11.202-5.62,12.115c-0.05,0.055-0.099,0.109-0.146,0.164&#xD;&#xA;&#x9;&#x9;l0.913-0.014c0.992-1.282,3.662-5.364,4.987-9.83C64.984,95.435,64.925,94.632,64.817,93.916z"/>
  <linearGradient id="SVGID_24_" gradientUnits="userSpaceOnUse" x1="9.5469" y1="106.8691" x2="9.5469" y2="120.4414">
    <stop offset="0" style="stop-color:#000000;stop-opacity:0.1"/>
    <stop offset="1" style="stop-color:#000000;stop-opacity:0.18"/>
  </linearGradient>
  <path fill="url(#SVGID_24_)" d="M11.261,106.869c-0.805,0-1.495,0.469-1.828,1.146l-0.004-0.003c0,0-0.004,0.012-0.01,0.032&#xD;&#xA;&#x9;&#x9;c-0.069,0.146-0.126,0.299-0.159,0.461c-0.648,1.888-2.977,8.642-3.387,9.6c-0.478,1.115,1.274,2.336,1.274,2.336l0.463-0.742&#xD;&#xA;&#x9;&#x9;c-1.339-1.195-1.1-1.115-0.861-1.912c0.177-0.588,1.874-5.391,2.749-7.863c0.353,0.612,1.006,1.028,1.763,1.028&#xD;&#xA;&#x9;&#x9;c1.127,0,2.042-0.915,2.042-2.042C13.303,107.783,12.389,106.869,11.261,106.869z"/>
  <radialGradient id="SVGID_25_" cx="11.2612" cy="108.9111" r="2.0415" gradientUnits="userSpaceOnUse">
    <stop offset="0.7663" style="stop-color:#000000;stop-opacity:0.7"/>
    <stop offset="0.7973" style="stop-color:#000000;stop-opacity:0.1741"/>
    <stop offset="0.8213" style="stop-color:#FFFFFF;stop-opacity:0.1749"/>
    <stop offset="0.8385" style="stop-color:#000000;stop-opacity:0.3"/>
    <stop offset="0.8591" style="stop-color:#FFFFFF;stop-opacity:0.425"/>
    <stop offset="0.8797" style="stop-color:#000000;stop-opacity:0.55"/>
    <stop offset="0.9416" style="stop-color:#000000;stop-opacity:0"/>
    <stop offset="0.9794" style="stop-color:#000000;stop-opacity:0.2"/>
    <stop offset="0.9863" style="stop-color:#FFFFFF;stop-opacity:0.1"/>
    <stop offset="1" style="stop-color:#000000;stop-opacity:0.3361"/>
  </radialGradient>
  <path fill="url(#SVGID_25_)" d="M11.261,106.869c1.127,0,2.042,0.914,2.042,2.042c0,1.127-0.914,2.042-2.042,2.042&#xD;&#xA;&#x9;&#x9;c-1.128,0-2.042-0.915-2.042-2.042C9.219,107.783,10.133,106.869,11.261,106.869z M9.746,108.911c0,0.836,0.679,1.515,1.516,1.515&#xD;&#xA;&#x9;&#x9;c0.836,0,1.515-0.679,1.515-1.515c0-0.837-0.679-1.516-1.515-1.516C10.424,107.395,9.746,108.074,9.746,108.911z"/>
  <linearGradient id="SVGID_26_" gradientUnits="userSpaceOnUse" x1="11.2607" y1="106.874" x2="11.2607" y2="110.9575">
    <stop offset="0" style="stop-color:#FFFFFF;stop-opacity:0.35"/>
    <stop offset="0.3368" style="stop-color:#FFFFFF;stop-opacity:0"/>
  </linearGradient>
  <path fill="url(#SVGID_26_)" d="M11.261,106.874c1.127,0,2.042,0.915,2.042,2.042c0,1.128-0.914,2.042-2.042,2.042&#xD;&#xA;&#x9;&#x9;c-1.128,0-2.042-0.914-2.042-2.042C9.219,107.789,10.133,106.874,11.261,106.874z M9.272,108.916c0,0.837,0.89,1.515,1.989,1.515&#xD;&#xA;&#x9;&#x9;c1.098,0,1.989-0.678,1.989-1.515c0-0.837-0.891-1.516-1.989-1.516C10.163,107.4,9.272,108.079,9.272,108.916z"/>
  <linearGradient id="SVGID_27_" gradientUnits="userSpaceOnUse" x1="9.5879" y1="108.8467" x2="12.9341" y2="108.8467">
    <stop offset="0" style="stop-color:#000000;stop-opacity:0.55"/>
    <stop offset="1" style="stop-color:#000000;stop-opacity:0.45"/>
  </linearGradient>
  <path fill="url(#SVGID_27_)" d="M11.261,107.189c0.923,0,1.673,0.74,1.673,1.653c0,0.912-0.75,1.652-1.673,1.652&#xD;&#xA;&#x9;&#x9;c-0.924,0-1.673-0.74-1.673-1.652C9.588,107.929,10.337,107.189,11.261,107.189z M9.726,108.988c0,0.837,0.679,1.516,1.515,1.516&#xD;&#xA;&#x9;&#x9;c0.837,0,1.516-0.679,1.516-1.516c0-0.836-0.679-1.515-1.516-1.515C10.405,107.473,9.726,108.152,9.726,108.988z"/>
  <linearGradient id="SVGID_28_" gradientUnits="userSpaceOnUse" x1="11.2607" y1="106.874" x2="11.2607" y2="110.9575">
    <stop offset="0.5464" style="stop-color:#000000;stop-opacity:0"/>
    <stop offset="0.5876" style="stop-color:#000000;stop-opacity:0.55"/>
    <stop offset="1" style="stop-color:#000000;stop-opacity:0.45"/>
  </linearGradient>
  <path fill="url(#SVGID_28_)" d="M11.26,106.874c1.128,0,2.042,0.915,2.042,2.042c0,1.128-0.914,2.042-2.042,2.042&#xD;&#xA;&#x9;&#x9;c-1.127,0-2.042-0.914-2.042-2.042C9.219,107.789,10.133,106.874,11.26,106.874z M9.219,108.738c0,1.03,0.915,1.865,2.042,1.865&#xD;&#xA;&#x9;&#x9;c1.128,0,2.042-0.834,2.042-1.865c0-1.029-0.914-1.864-2.042-1.864C10.133,106.874,9.219,107.709,9.219,108.738z"/>
  <linearGradient id="SVGID_29_" gradientUnits="userSpaceOnUse" x1="9.7456" y1="108.915" x2="12.7764" y2="108.915">
    <stop offset="0" style="stop-color:#000000;stop-opacity:0.1"/>
    <stop offset="1" style="stop-color:#000000;stop-opacity:0.18"/>
  </linearGradient>
  <circle fill="url(#SVGID_29_)" cx="11.261" cy="108.916" r="1.515"/>
  <linearGradient id="SVGID_30_" gradientUnits="userSpaceOnUse" x1="5.811" y1="114.2139" x2="9.2266" y2="114.2139">
    <stop offset="0" style="stop-color:#FFFFFF;stop-opacity:0.3"/>
    <stop offset="0.5052" style="stop-color:#FFFFFF;stop-opacity:0.6"/>
    <stop offset="1" style="stop-color:#FFFFFF;stop-opacity:0.3"/>
  </linearGradient>
  <path fill="url(#SVGID_30_)" d="M9.227,108.604l-3.354,9.501c-0.298,0.896,0.576,1.718,0.576,1.718s-0.636-0.821-0.367-1.658&#xD;&#xA;&#x9;&#x9;c0.269-0.836,3.144-8.754,3.144-8.754S9.155,108.978,9.227,108.604z"/>
  <linearGradient id="SVGID_31_" gradientUnits="userSpaceOnUse" x1="6.5063" y1="114.7192" x2="9.4771" y2="114.7192">
    <stop offset="0" style="stop-color:#000000;stop-opacity:0.55"/>
    <stop offset="1" style="stop-color:#000000;stop-opacity:0.45"/>
  </linearGradient>
  <path fill="url(#SVGID_31_)" d="M9.477,109.908c0,0-2.729,8.028-2.898,8.411c-0.168,0.384,0.994,1.364,0.994,1.364&#xD;&#xA;&#x9;&#x9;s-1.31-0.861-1.026-1.667c0.282-0.807,2.854-8.261,2.854-8.261L9.477,109.908z"/>
  <linearGradient id="SVGID_32_" gradientUnits="userSpaceOnUse" x1="6.9009" y1="119.7178" x2="7.4244" y2="120.02">
    <stop offset="0.4536" style="stop-color:#000000;stop-opacity:0"/>
    <stop offset="0.8351" style="stop-color:#000000;stop-opacity:0.45"/>
  </linearGradient>
  <polygon fill="url(#SVGID_32_)" points="7.61,119.699 7.147,120.441 6.698,120.07 7.154,119.283 &#x9;"/>
  <linearGradient id="SVGID_33_" gradientUnits="userSpaceOnUse" x1="13.0186" y1="108.9106" x2="13.0186" y2="110.3218">
    <stop offset="0.1031" style="stop-color:#000000;stop-opacity:0"/>
    <stop offset="0.1375" style="stop-color:#000000;stop-opacity:0.35"/>
    <stop offset="0.7835" style="stop-color:#000000;stop-opacity:0.35"/>
    <stop offset="0.8625" style="stop-color:#000000;stop-opacity:0.5"/>
  </linearGradient>
  <path fill="url(#SVGID_33_)" d="M12.734,110.322h0.568v-1.411c0,0.547-0.218,1.041-0.568,1.408V110.322z"/>
  <linearGradient id="SVGID_34_" gradientUnits="userSpaceOnUse" x1="13.0215" y1="107.5103" x2="13.0215" y2="108.9106">
    <stop offset="0.1031" style="stop-color:#000000;stop-opacity:0"/>
    <stop offset="0.1375" style="stop-color:#000000;stop-opacity:0.35"/>
    <stop offset="0.7835" style="stop-color:#000000;stop-opacity:0.35"/>
    <stop offset="0.8625" style="stop-color:#000000;stop-opacity:0.5"/>
  </linearGradient>
  <path fill="url(#SVGID_34_)" d="M12.74,107.51c0.347,0.365,0.563,0.856,0.563,1.4v-1.4H12.74z"/>
  <linearGradient id="SVGID_35_" gradientUnits="userSpaceOnUse" x1="46.1729" y1="91.2178" x2="49.2241" y2="91.2178">
    <stop offset="0" style="stop-color:#000000;stop-opacity:0.1"/>
    <stop offset="1" style="stop-color:#000000;stop-opacity:0.18"/>
  </linearGradient>
  <circle fill="url(#SVGID_35_)" cx="47.698" cy="91.218" r="1.526"/>
  <linearGradient id="SVGID_36_" gradientUnits="userSpaceOnUse" x1="47.6982" y1="89.6924" x2="47.6982" y2="92.7432">
    <stop offset="0" style="stop-color:#000000;stop-opacity:0.1"/>
    <stop offset="1" style="stop-color:#000000;stop-opacity:0.18"/>
  </linearGradient>
  <circle fill="url(#SVGID_36_)" cx="47.698" cy="91.218" r="1.526"/>
  <linearGradient id="SVGID_37_" gradientUnits="userSpaceOnUse" x1="47.6982" y1="89.6924" x2="47.6982" y2="92.7432">
    <stop offset="0" style="stop-color:#FFFFFF;stop-opacity:0.35"/>
    <stop offset="0.4742" style="stop-color:#FFFFFF;stop-opacity:0.18"/>
    <stop offset="0.5636" style="stop-color:#000000;stop-opacity:0"/>
    <stop offset="1" style="stop-color:#000000;stop-opacity:0.35"/>
  </linearGradient>
  <path fill="url(#SVGID_37_)" d="M49.224,91.218c0,0.843-0.683,1.525-1.526,1.525c-0.842,0-1.525-0.683-1.525-1.525&#xD;&#xA;&#x9;&#x9;c0-0.842,0.683-1.525,1.525-1.525C48.541,89.692,49.224,90.376,49.224,91.218z M47.698,89.99c-0.842,0-1.525,0.549-1.525,1.228&#xD;&#xA;&#x9;&#x9;c0,0.679,0.683,1.229,1.525,1.229c0.843,0,1.526-0.55,1.526-1.229C49.224,90.54,48.541,89.99,47.698,89.99z"/>
  <linearGradient id="SVGID_38_" gradientUnits="userSpaceOnUse" x1="45.791" y1="90.9727" x2="50.1597" y2="90.9727">
    <stop offset="0" style="stop-color:#000000;stop-opacity:0.1"/>
    <stop offset="1" style="stop-color:#000000;stop-opacity:0.18"/>
  </linearGradient>
  <path fill="url(#SVGID_38_)" d="M50.16,90.832c-0.421,0.516-0.823,1.01-1.225,1.427c-2.013,2.092-3.801,0-2.907-1.22&#xD;&#xA;&#x9;&#x9;c0.397-0.542,0.928-1.326,1.708-2.242C48.933,88.838,49.924,89.693,50.16,90.832z M47.698,89.692c-0.842,0-1.525,0.684-1.525,1.525&#xD;&#xA;&#x9;&#x9;c0,0.843,0.683,1.525,1.525,1.525c0.843,0,1.526-0.683,1.526-1.525C49.224,90.376,48.541,89.692,47.698,89.692z"/>
  <linearGradient id="SVGID_39_" gradientUnits="userSpaceOnUse" x1="47.46" y1="90.0068" x2="50.1597" y2="90.0068">
    <stop offset="0" style="stop-color:#FFFFFF;stop-opacity:0.3"/>
    <stop offset="0.5052" style="stop-color:#FFFFFF;stop-opacity:0.6"/>
    <stop offset="1" style="stop-color:#FFFFFF;stop-opacity:0.3"/>
  </linearGradient>
  <path fill="url(#SVGID_39_)" d="M50.16,90.832c-0.107,0.13-0.212,0.259-0.317,0.386c-0.233-1.513-1.328-2.131-2.383-2.091&#xD;&#xA;&#x9;&#x9;c0.088-0.108,0.18-0.218,0.275-0.331C48.933,88.838,49.924,89.693,50.16,90.832z"/>
  <linearGradient id="SVGID_40_" gradientUnits="userSpaceOnUse" x1="46.2603" y1="92.7871" x2="49.1582" y2="92.7871">
    <stop offset="0" style="stop-color:#000000;stop-opacity:0.55"/>
    <stop offset="1" style="stop-color:#000000;stop-opacity:0.45"/>
  </linearGradient>
  <path fill="url(#SVGID_40_)" d="M46.26,91.724l0.382,1.326l-0.382,0.573c1.04,0.443,1.956,0.145,2.274-0.095&#xD;&#xA;&#x9;&#x9;c0.319-0.239,0.624-0.551,0.624-0.551v-0.959l-0.349,0.342l-0.044-0.055C48.077,92.961,46.773,92.937,46.26,91.724z"/>
  <linearGradient id="SVGID_41_" gradientUnits="userSpaceOnUse" x1="110.8286" y1="105.9131" x2="212.7651" y2="105.9131">
    <stop offset="0" style="stop-color:#000000;stop-opacity:0.55"/>
    <stop offset="1" style="stop-color:#000000;stop-opacity:0.45"/>
  </linearGradient>
  <polygon fill="url(#SVGID_41_)" points="212.765,106.869 110.829,106.869 111.512,104.957 211.294,104.957 &#x9;"/>
  <linearGradient id="SVGID_42_" gradientUnits="userSpaceOnUse" x1="8.8931" y1="56.2656" x2="111.5117" y2="56.2656">
    <stop offset="0" style="stop-color:#000000;stop-opacity:0.45"/>
    <stop offset="1" style="stop-color:#000000;stop-opacity:0.2"/>
  </linearGradient>
  <polygon fill="url(#SVGID_42_)" points="8.893,5.662 110.829,106.869 111.512,104.957 11.011,5.662 &#x9;"/>
  <linearGradient id="SVGID_43_" gradientUnits="userSpaceOnUse" x1="212.0293" y1="5.6621" x2="212.0293" y2="106.8691">
    <stop offset="0" style="stop-color:#000000;stop-opacity:0.45"/>
    <stop offset="1" style="stop-color:#000000;stop-opacity:0.2"/>
  </linearGradient>
  <polygon fill="url(#SVGID_43_)" points="212.765,5.662 212.765,106.869 211.294,104.957 211.294,5.662 &#x9;"/>
</svg>