<svg version="1.2" baseProfile="tiny" id="EdgeSVG_1pfV0" x="0px" y="0px" width="217.511px" height="122.268px" viewBox="0 0 217.511 122.268" xmlns:xlink="http://www.w3.org/1999/xlink" xmlns="http://www.w3.org/2000/svg">
  <linearGradient id="SVGID_1_" gradientUnits="userSpaceOnUse" x1="0" y1="61.1338" x2="217.5107" y2="61.1338">
    <stop offset="0" style="stop-color:#1A1618;stop-opacity:0.5"/>
    <stop offset="1" style="stop-color:#000000;stop-opacity:0.5"/>
  </linearGradient>
  <path fill="url(#SVGID_1_)" d="M214.265,108.043V6.79h3.246V0H0v6.79h8.228l90.167,89.79L78.5,99.332&#xD;&#xA;&#x9;&#x9;c-0.763-2.381-2.268-6.311-4.632-9.296c-5.918-7.475-34.727-35.904-35.95-37.11l-0.823-0.706l-0.951,0.456&#xD;&#xA;&#x9;&#x9;c-2.145,1.027-2.561,3.137-1.535,7.786c1.145,5.189-0.381,8.76-4.662,10.916c-5.155,2.597-10.123,3.907-11.075,4.092&#xD;&#xA;&#x9;&#x9;c-1.304,0.252-1.949,0.918-2.26,1.433c-0.462,0.764-0.533,1.698-0.209,2.775l0.042,0.138l0.067,0.128&#xD;&#xA;&#x9;&#x9;c5.675,10.812,12.679,18.804,21.322,24.306l-5.724,0.794H11.803v0.048c-0.19-0.032-0.384-0.048-0.579-0.048&#xD;&#xA;&#x9;&#x9;c-1.845,0-3.349,1.374-3.532,3.173l-3.144,8.835c-0.272,0.618-0.459,1.796,0.333,2.881c0.6,0.821,1.312,1.344,1.391,1.401&#xD;&#xA;&#x9;&#x9;l1.301,0.935l1.979-3.174l-0.944-0.841c-0.129-0.115-0.283-0.257-0.41-0.376l2.053-5.881c0.312,0.087,0.638,0.133,0.973,0.133&#xD;&#xA;&#x9;&#x9;c0.195,0,0.389-0.016,0.579-0.048v9.535h204.233v-11.83h-10.132v-1.743H214.265z M61.071,103.323l-4.379,0.517&#xD;&#xA;&#x9;&#x9;c0.873-1.147,2.141-3.288,3.87-6.503c2.907-5.404,1.341-9.436-3.131-10.308c-3.579-0.697-5.583,1.732-7.271,3.802&#xD;&#xA;&#x9;&#x9;c-0.235-1.138-1.227-1.993-2.424-2.034c0.975-1.146,2.341-2.829,4.33-4.186c3.577-2.44,10.285-2.789,12.521,3.661&#xD;&#xA;&#x9;&#x9;C66.201,92.929,63.247,99.674,61.071,103.323z M82.316,105.499l21.751-2.248l1.91,1.821L82.316,105.499z"/>
</svg>