<svg version="1.2" baseProfile="tiny" viewBox="0 0 12.483 18.000" xmlns:xlink="http://www.w3.org/1999/xlink" xmlns="http://www.w3.org/2000/svg">
<path style="fill:#ffffff;" d="M11.906,16.47c-0.127-4.145-2.144-6.321-3.203-7.216V8.302c1.06-0.896,3.076-3.071,3.203-7.217   c0.328,0,0.577-0.174,0.577-0.54C12.483,0.175,12.192,0,11.859,0H0.604C0.27,0,0.005,0.175,0.005,0.545   c0,0.365,0.254,0.603,0.583,0.603c0.063,2.113,0.635,3.69,1.329,4.855c0.688,1.164,1.492,1.911,2.021,2.345v0.863   C2.88,10.08,0.715,12.256,0.588,16.47C0.259,16.47,0,16.867,0,17.237C0,17.603,0.27,18,0.604,18h11.255   c0.333,0,0.624-0.397,0.624-0.763C12.483,16.867,12.234,16.47,11.906,16.47z M2.269,3.191C2.259,3.124,2.278,3.057,2.32,3.01   c0.048-0.053,0.11-0.082,0.177-0.082l7.395-0.023c0.092-0.014,0.133,0.033,0.176,0.086c0.049,0.057,0.067,0.134,0.053,0.201   C9.726,5.221,8.839,6.068,8.124,6.735C7.866,6.979,7.619,7.24,7.438,7.498c-0.791,1.11-0.9,2.568-0.9,2.582   c-0.01,0.119-0.11,0.348-0.233,0.348H6.3c-0.125,0-0.225-0.238-0.225-0.361c0-0.01-0.043-1.453-1.066-2.684   C4.798,7.135,4.546,6.936,4.279,6.726C3.503,6.111,2.621,5.411,2.269,3.191z M10.11,16.504c0,0-0.005,0-0.01,0H2.362   c-0.129,0-0.232-0.22-0.232-0.349c0-0.609,0.938-1.063,2.02-1.457c0.801-0.286,1.901-0.688,1.901-1.067   c0-0.128,0.104-0.233,0.233-0.233s0.229,0.105,0.229,0.233c0,0.38,1.072,0.781,1.854,1.071c1.006,0.371,1.883,0.696,1.963,1.254   c0.01,0.028,0.014,0.172,0.014,0.199C10.343,16.284,10.239,16.504,10.11,16.504z"/>
</svg>