<svg version="1.2" baseProfile="tiny" viewBox="0 0 32 32" xmlns:xlink="http://www.w3.org/1999/xlink" xmlns="http://www.w3.org/2000/svg">
<path style="fill:#ffffff;" d="M20.5,8.58C20.914,8.58,21.25,8.244,21.25,7.83C21.25,7.416,20.914,7.08,20.5,7.08H11.5C11.086,7.08,10.75,7.416,10.75,7.83C10.75,8.244,11.086,8.58,11.5,8.58H15.25V23.42H11.5C11.086,23.42,10.75,23.756,10.75,24.17C10.75,24.584,11.086,24.92,11.5,24.92H20.5C20.914,24.92,21.25,24.584,21.25,24.17C21.25,23.756,20.914,23.42,20.5,23.42H16.75V8.58H20.5Z M16.001,0.800003C7.61905,0.800003,0.800049,7.618,0.800049,15.999C0.800049,24.381,7.61905,31.2,16.001,31.2C24.382,31.2,31.2001,24.381,31.2001,15.999C31.2001,7.618,24.382,0.800003,16.001,0.800003ZM16.001,29.6C8.50105,29.6,2.40005,23.499,2.40005,15.999C2.40005,8.501,8.50105,2.4,16.001,2.4C23.499,2.4,29.6,8.501,29.6,15.999C29.6,23.499,23.499,29.6,16.001,29.6Z"/>
</svg>