<svg version="1.2" baseProfile="tiny" viewBox="0 0 50.149 50.58" xmlns:xlink="http://www.w3.org/1999/xlink" xmlns="http://www.w3.org/2000/svg">
<path style="fill:#ffffff;" d="M45.3252,50.58L4.8248,50.58C4.2722,50.58,3.8249,50.1329,3.8249,49.58L3.8249,17.9402C3.8249,17.3879,4.2722,16.9397,4.8248,16.9397C5.378,16.9397,5.8248,17.3879,5.8248,17.9402L5.8248,48.5801L44.3252,48.5801L44.3252,17.9402C44.3252,17.3879,44.772,16.9397,45.3252,16.9397C45.8778,16.9397,46.3251,17.3879,46.3251,17.9402L46.3251,49.58C46.3251,50.1329,45.8778,50.58,45.3252,50.58M50.149,37.8728L50.149,1.0C50.149,0.4481,49.7022,0.0,49.149,0.0L1.0,0.0L1.0,0.0C0.4468,0.0,0.0,0.4481,0.0,1.0L0.0,37.8728C0.0,38.4261,0.4468,38.8728,1.0,38.8728C1.5531,38.8728,1.9999,38.4261,1.9999,37.8728L1.9999,1.9999L48.1491,1.9999L48.1491,37.8728C48.1491,38.4261,48.5959,38.8728,49.149,38.8728C49.7022,38.8728,50.149,38.4261,50.149,37.8728Z"/>
</svg>