<svg version="1.2" baseProfile="tiny" viewBox="0 0 18.000 14.000" xmlns:xlink="http://www.w3.org/1999/xlink" xmlns="http://www.w3.org/2000/svg">
<path style="fill:#ffffff;" d="M17.785,0.28c-0.162-0.187-0.354-0.263-0.627-0.263V0.02H0.843V0.017   c-0.275,0-0.465,0.076-0.628,0.263C0.062,0.451,0.022,0.62,0.022,0.836v12.343h0.001c0,0.261,0.081,0.446,0.245,0.6l-0.002,0.001   c0.174,0.157,0.349,0.203,0.559,0.203h16.35c0.207,0,0.382-0.044,0.554-0.201c0.164-0.149,0.247-0.339,0.247-0.603h0.001V0.836   C17.978,0.62,17.938,0.451,17.785,0.28z M17.528,12.869L17.528,12.869c-0.001,0.251-0.079,0.431-0.235,0.573   c-0.163,0.149-0.329,0.191-0.525,0.191H1.234c-0.199,0-0.366-0.044-0.531-0.193l0.002-0.002c-0.156-0.145-0.233-0.321-0.233-0.569   H0.471V1.144c0-0.206,0.038-0.366,0.183-0.529C0.809,0.438,0.99,0.366,1.251,0.366v0.002h15.5V0.366   c0.258,0,0.441,0.072,0.596,0.249c0.145,0.163,0.182,0.323,0.182,0.529V12.869z M9.189,12.349L9.189,12.349L8.554,12.35v-0.001   c-0.015,0-0.025,0.004-0.035,0.015c-0.008,0.009-0.01,0.019-0.01,0.03v0.435c0,0.015,0.005,0.024,0.014,0.033l0,0   c0.009,0.009,0.019,0.012,0.03,0.012H9.19c0.011,0,0.021-0.003,0.029-0.012c0.01-0.008,0.015-0.019,0.015-0.033v-0.435   c0-0.012-0.002-0.021-0.011-0.03C9.214,12.353,9.204,12.349,9.189,12.349z M15.009,2.389c-0.111-0.127-0.243-0.18-0.428-0.18V2.21   H9.707v4.724l3.079-2.731c0.069-0.065,0.169-0.082,0.256-0.045c0.085,0.037,0.142,0.122,0.143,0.215l0.01,1.252   c0,0.066-0.026,0.129-0.074,0.174L9.167,9.44C9.12,9.483,9.063,9.505,9.005,9.505c-0.063,0-0.124-0.025-0.171-0.074L4.881,5.785   C4.832,5.74,4.806,5.675,4.806,5.608l0.035-1.325C4.843,4.189,4.9,4.106,4.986,4.071c0.087-0.035,0.186-0.019,0.253,0.046   L8.23,6.898V2.21h-4.81V2.209c-0.188,0-0.318,0.053-0.43,0.18C2.886,2.506,2.859,2.622,2.859,2.77v8.188H2.86   c0,0.179,0.055,0.306,0.167,0.409l-0.001,0.002c0.119,0.107,0.239,0.139,0.382,0.139h11.185c0.141,0,0.261-0.03,0.379-0.138   c0.111-0.103,0.168-0.231,0.168-0.412h0.001V2.77C15.141,2.622,15.113,2.506,15.009,2.389z"/>
</svg>