<svg version="1.2" baseProfile="tiny" viewBox="0 0 219.937 161.469" xmlns:xlink="http://www.w3.org/1999/xlink" xmlns="http://www.w3.org/2000/svg">
<path style="fill:#ffffff;" d="M217.0778,93.2597L185.9369,93.2597L185.9369,74.4324L182.7918,69.7837L182.7918,51.1921L179.6467,46.5451L179.6467,42.3485C179.6467,41.5815,179.0177,40.9534,178.2501,40.9534L172.3031,40.9534C171.5355,40.9534,170.9086,41.5815,170.9086,42.3485C170.9086,41.5815,170.2818,40.9534,169.5142,40.9534L34.3696,40.9534L34.3696,40.9534C33.602,40.9534,32.9752,41.5815,32.9752,42.3485C32.9752,41.5815,32.3483,40.9534,31.5808,40.9534L31.2421,40.9534L31.2421,34.4639L27.987,34.4639L27.987,30.4208L26.5948,30.4208L26.5948,24.8565L37.6224,24.8565L37.6224,24.3931L39.9472,24.3931L39.9472,22.7607L51.5664,22.7607L51.5664,3.0986L39.9472,3.0986L39.9472,1.4645L37.6224,1.4645L37.6224,0.9995L7.3855,0.9995L7.3855,30.4208L7.3855,30.4208L5.9889,30.4208L5.9889,34.4623L5.9889,34.4623L2.736,34.4623L2.736,40.9534L2.736,40.9534L2.3929,40.9534L2.3929,40.9534C1.6275,40.9534,1.0007,41.5815,1.0007,42.3485L1.0007,159.0744C1.0007,159.843,1.6275,160.4695,2.3929,160.4695L31.5808,160.4695C32.3483,160.4695,32.9752,159.843,32.9752,159.0744C32.9752,159.843,33.602,160.4695,34.3696,160.4695L169.5164,160.4695C170.284,160.4695,170.9108,159.843,170.9108,159.0744C170.9108,159.843,171.5377,160.4695,172.3052,160.4695L178.2523,160.4695C179.0199,160.4695,179.6489,159.843,179.6489,159.0744L179.6489,154.8778L182.794,150.2308L182.794,131.6392L185.9391,126.9921L185.9391,107.6691L217.08,107.6691C218.1027,107.6691,218.9385,106.8327,218.9385,105.8106L218.9385,95.1181C218.9363,94.0944,218.1005,93.2597,217.0778,93.2597Z"/>
</svg>