<svg width="32" height="32" viewBox="0 0 32 32" fill="none" xmlns="http://www.w3.org/2000/svg">
<path d="M1.438 4.247H30.562C31.356 4.247 32 3.603 32 2.809C32 2.015 31.356 1.371 30.562 1.371H1.438C0.644 1.371 0 2.014 0 2.809C0 3.603 0.644 4.247 1.438 4.247Z" fill="#6A6A6A"/>
<path d="M30.562 14.553H1.438C0.644 14.553 0 15.197 0 15.991C0 16.785 0.644 17.429 1.438 17.429H30.562C31.356 17.429 32 16.785 32 15.991C32 15.197 31.356 14.553 30.562 14.553Z" fill="#6A6A6A"/>
<path d="M30.562 27.753H1.438C0.644 27.753 0 28.397 0 29.191C0 29.985 0.644 30.629 1.438 30.629H30.562C31.356 30.629 32 29.985 32 29.191C32 28.397 31.356 27.753 30.562 27.753Z" fill="#6A6A6A"/>
</svg>
