<svg width="32" height="32" viewBox="0 0 32 32" fill="none" xmlns="http://www.w3.org/2000/svg">
<path d="M28.03 6.585L22.704 0.765C22.55 0.596 22.332 0.5 22.103 0.5H4.571C4.12 0.5 3.755 0.865 3.755 1.316V30.684C3.755 31.135 4.12 31.5 4.571 31.5H27.428C27.879 31.5 28.244 31.135 28.244 30.684V7.136C28.244 6.932 28.168 6.736 28.03 6.585ZM23.007 3.512L26.551 7.385H23.007V3.512ZM5.387 29.868V2.132H21.375V8.202C21.375 8.653 21.74 9.018 22.191 9.018H26.613V29.869H5.387V29.868Z" fill="#6A6A6A"/>
<path d="M21.283 16.754H10.64C10.189 16.754 9.82401 16.389 9.82401 15.938C9.82401 15.487 10.189 15.122 10.64 15.122H21.283C21.734 15.122 22.099 15.487 22.099 15.938C22.099 16.388 21.733 16.754 21.283 16.754Z" fill="#6A6A6A"/>
<path d="M18.777 10.678H10.64C10.189 10.678 9.82401 10.313 9.82401 9.86199C9.82401 9.41099 10.189 9.04599 10.64 9.04599H18.777C19.228 9.04599 19.593 9.41099 19.593 9.86199C19.592 10.313 19.227 10.678 18.777 10.678Z" fill="#6A6A6A"/>
<path d="M21.283 22.814H10.64C10.189 22.814 9.82401 22.449 9.82401 21.998C9.82401 21.547 10.189 21.182 10.64 21.182H21.283C21.734 21.182 22.099 21.547 22.099 21.998C22.099 22.449 21.733 22.814 21.283 22.814Z" fill="#6A6A6A"/>
</svg>
