<svg version="1.2" baseProfile="tiny" viewBox="0 0 40.0 40.0" xmlns:xlink="http://www.w3.org/1999/xlink" xmlns="http://www.w3.org/2000/svg">
<path style="fill:#ffffff;" d="M20.0,0.9808C9.498,0.9808,0.9808,9.498,0.9808,20.0C0.9808,30.502,9.498,39.0188,20.0,39.0188C30.502,39.0188,39.0188,30.502,39.0188,20.0C39.0188,9.498,30.502,0.9808,20.0,0.9808M26.3,16.386C26.7548,17.174,26.486,18.182,25.6952,18.638C24.908,19.0912,23.8988,18.8212,23.4472,18.034C22.9912,17.246,23.26,16.238,24.0492,15.782C24.834,15.326,25.8428,15.5952,26.3,16.386M15.036,5.9908C15.454,5.6068,16.862,4.9408,20.0,4.9408C23.1388,4.9408,24.546,5.6068,24.96,5.9908C25.4468,6.436,24.9868,7.6448,23.952,8.9892C22.9172,10.3308,22.416,10.456,20.0,10.456C17.584,10.456,17.0828,10.3308,16.048,8.9892C15.0132,7.6448,14.5532,6.436,15.036,5.9908M5.1428,20.3928C4.9072,19.8752,4.7088,18.33,5.68,15.3448C6.6492,12.3628,7.7192,11.2292,8.2088,10.9508C8.7828,10.628,9.7912,11.438,10.75,12.838C11.7052,14.2368,11.67,14.7552,10.9252,17.0532C10.1792,19.346,9.902,19.788,8.308,20.354C6.71,20.924,5.416,20.9888,5.1428,20.3928M15.782,34.2492C15.2152,34.3132,13.686,34.028,11.1492,32.184C8.608,30.3392,7.8628,28.974,7.7528,28.4172C7.62,27.7708,8.704,27.064,10.332,26.584C11.9568,26.1052,12.4352,26.3,14.3912,27.718C16.346,29.1408,16.6768,29.536,16.726,31.2292C16.7712,32.926,16.432,34.1732,15.782,34.2492M15.9528,24.2648C15.162,24.7168,14.154,24.4472,13.702,23.66C13.2452,22.8732,13.5152,21.8648,14.3032,21.408C15.094,20.952,16.1008,21.2212,16.5548,22.0132C17.01,22.7992,16.74,23.808,15.9528,24.2648M16.554,18.034C16.1,18.8212,15.0932,19.0912,14.306,18.638C13.514,18.182,13.244,17.174,13.7012,16.386C14.1568,15.5952,15.1648,15.3248,15.952,15.782C16.74,16.238,17.01,17.246,16.554,18.034M20.0,27.296C19.0912,27.296,18.3532,26.558,18.3532,25.6492C18.3532,24.736,19.0912,23.9988,20.0,23.9988C20.9088,23.9988,21.6468,24.736,21.6468,25.6492C21.6468,26.558,20.9088,27.296,20.0,27.296M20.0,16.044C19.0912,16.044,18.3532,15.306,18.3532,14.3968C18.3532,13.484,19.0912,12.7468,20.0,12.7468C20.9088,12.7468,21.6468,13.4852,21.6468,14.3968C21.6468,15.3068,20.9088,16.044,20.0,16.044M23.446,22.0132C23.898,21.2212,24.9068,20.9508,25.694,21.408C26.4848,21.8648,26.7548,22.8732,26.2992,23.66C25.842,24.4472,24.8328,24.718,24.0472,24.2648C23.26,23.808,22.99,22.7992,23.446,22.0132M32.2492,28.414C32.1348,28.974,31.388,30.3392,28.852,32.184C26.312,34.0292,24.782,34.318,24.218,34.2492C23.564,34.1768,23.226,32.926,23.276,31.232C23.322,29.536,23.6568,29.14,25.6068,27.7212C27.562,26.2992,28.042,26.108,29.67,26.5828C31.294,27.064,32.3772,27.7708,32.2492,28.414M31.692,20.3568C30.0952,19.7868,29.8208,19.3492,29.076,17.052C28.33,14.754,28.2928,14.2368,29.25,12.8372C30.2092,11.4412,31.218,10.6268,31.788,10.95C32.282,11.2272,33.3508,12.362,34.3208,15.3468C35.292,18.332,35.0932,19.8732,34.854,20.3868C34.5828,20.9888,33.29,20.9288,31.692,20.3568Z"/>
</svg>