<svg version="1.2" baseProfile="tiny" id="EdgeSVG_UHcaT" x="0px" y="0px" width="40px" height="40px" viewBox="0 0 40 40" xmlns:xlink="http://www.w3.org/1999/xlink" xmlns="http://www.w3.org/2000/svg">
  <linearGradient id="SVGID_1_" gradientUnits="userSpaceOnUse" x1="0" y1="20" x2="40" y2="20">
    <stop offset="0" style="stop-color:#000000;stop-opacity:0.5"/>
    <stop offset="1" style="stop-color:#000000;stop-opacity:0.5"/>
  </linearGradient>
  <path fill="url(#SVGID_1_)" d="M20,0C8.972,0,0,8.972,0,20c0,11.027,8.972,20,20,20c11.027,0,20-8.973,20-20&#xD;&#xA;&#x9;&#x9;C40,8.972,31.027,0,20,0z M26.3,16.386c0.455,0.788,0.186,1.796-0.605,2.252c-0.787,0.453-1.796,0.183-2.248-0.604&#xD;&#xA;&#x9;&#x9;c-0.456-0.788-0.187-1.796,0.602-2.252C24.834,15.326,25.843,15.595,26.3,16.386z M15.036,5.991c0.418-0.384,1.826-1.05,4.964-1.05&#xD;&#xA;&#x9;&#x9;c3.139,0,4.546,0.666,4.96,1.05c0.487,0.445,0.027,1.654-1.008,2.998c-1.035,1.342-1.536,1.467-3.952,1.467&#xD;&#xA;&#x9;&#x9;c-2.416,0-2.917-0.125-3.952-1.467C15.013,7.645,14.553,6.436,15.036,5.991z M5.143,20.393c-0.236-0.518-0.434-2.063,0.537-5.048&#xD;&#xA;&#x9;&#x9;c0.969-2.982,2.039-4.116,2.529-4.394c0.574-0.323,1.582,0.487,2.541,1.887c0.955,1.399,0.92,1.917,0.175,4.215&#xD;&#xA;&#x9;&#x9;c-0.746,2.293-1.023,2.735-2.617,3.301C6.71,20.924,5.416,20.989,5.143,20.393z M15.782,34.249&#xD;&#xA;&#x9;&#x9;c-0.567,0.064-2.096-0.221-4.633-2.065c-2.541-1.845-3.286-3.21-3.396-3.767c-0.133-0.646,0.951-1.353,2.579-1.833&#xD;&#xA;&#x9;&#x9;c1.625-0.479,2.103-0.284,4.059,1.134c1.955,1.423,2.286,1.818,2.335,3.511C16.771,32.926,16.432,34.173,15.782,34.249z&#xD;&#xA;&#x9;&#x9; M15.953,24.265c-0.791,0.452-1.799,0.182-2.251-0.605c-0.457-0.787-0.187-1.795,0.601-2.252c0.791-0.456,1.798-0.187,2.252,0.605&#xD;&#xA;&#x9;&#x9;C17.01,22.799,16.74,23.808,15.953,24.265z M16.554,18.034c-0.454,0.787-1.461,1.057-2.248,0.604&#xD;&#xA;&#x9;&#x9;c-0.792-0.456-1.062-1.464-0.605-2.252c0.456-0.791,1.464-1.061,2.251-0.604C16.74,16.238,17.01,17.246,16.554,18.034z M20,27.296&#xD;&#xA;&#x9;&#x9;c-0.909,0-1.647-0.738-1.647-1.647c0-0.913,0.738-1.65,1.647-1.65s1.647,0.737,1.647,1.65C21.647,26.558,20.909,27.296,20,27.296z&#xD;&#xA;&#x9;&#x9; M20,16.044c-0.909,0-1.647-0.738-1.647-1.647c0-0.913,0.738-1.65,1.647-1.65s1.647,0.738,1.647,1.65&#xD;&#xA;&#x9;&#x9;C21.647,15.307,20.909,16.044,20,16.044z M23.446,22.013c0.452-0.792,1.461-1.062,2.248-0.605c0.791,0.457,1.061,1.465,0.605,2.252&#xD;&#xA;&#x9;&#x9;c-0.457,0.787-1.466,1.058-2.252,0.605C23.26,23.808,22.99,22.799,23.446,22.013z M28.852,32.184&#xD;&#xA;&#x9;&#x9;c-2.54,1.845-4.07,2.134-4.634,2.065c-0.654-0.072-0.992-1.323-0.942-3.017c0.046-1.696,0.381-2.092,2.331-3.511&#xD;&#xA;&#x9;&#x9;c1.955-1.422,2.435-1.613,4.063-1.138c1.624,0.48,2.707,1.187,2.579,1.83C32.135,28.974,31.388,30.339,28.852,32.184z&#xD;&#xA;&#x9;&#x9; M31.692,20.357c-1.597-0.57-1.871-1.008-2.616-3.305c-0.746-2.298-0.783-2.815,0.174-4.215c0.959-1.396,1.968-2.21,2.538-1.887&#xD;&#xA;&#x9;&#x9;c0.494,0.277,1.563,1.412,2.533,4.397c0.971,2.985,0.772,4.526,0.533,5.04C34.583,20.989,33.29,20.929,31.692,20.357z"/>
</svg>