<svg version="1.2" baseProfile="tiny" viewBox="0 0 217.511 122.268" xmlns:xlink="http://www.w3.org/1999/xlink" xmlns="http://www.w3.org/2000/svg">
<path style="fill:#ffffff;" d="M212.7649,5.6561L216.0102,5.6561L216.0102,1.8255L1.5008,1.8255L1.5008,5.6622L1.5008,5.6622L8.894,5.6622L102.3585,98.4856L77.4317,101.3186C76.5334,98.1983,74.8934,94.0987,72.6922,91.3195C66.765,83.8306,36.8659,54.3445,36.8659,54.3445C36.0742,54.7296,34.8888,55.1135,36.0742,60.4896C37.2596,65.8658,35.9589,70.3811,30.6212,73.0686C25.2857,75.7572,20.1459,77.1022,19.1562,77.2942C18.1687,77.4849,17.377,78.062,17.8381,79.5977C25.0921,93.4164,33.7273,101.0276,42.4625,105.5271L31.948,106.8952L13.303,106.8952L13.303,107.5359L13.303,107.5359L12.7396,107.5359L12.7396,107.5726L12.7396,107.5726C12.3655,107.1606,11.8261,106.8952,11.2236,106.8952C10.1186,106.8952,9.2246,107.7682,9.1811,108.8576L5.9381,117.9727C5.9381,117.9727,5.5639,118.6782,6.0925,119.3996C6.5688,120.0513,7.1474,120.4682,7.1474,120.4682L7.6107,119.7261C7.6107,119.7261,6.8059,119.0096,6.6537,118.7565C6.4775,118.4581,6.5667,118.2943,6.658,118.0852L9.4791,110.0082L9.477,109.996C9.838,110.5841,10.4819,110.9814,11.2236,110.9814C11.8282,110.9814,12.3655,110.7161,12.7396,110.3029L12.7396,110.3469L13.303,110.3469L13.303,120.4413L214.5355,120.4413L214.5355,111.6111L204.5038,111.6111L204.4973,106.8683L212.7649,106.8683L212.7649,5.6561M61.088,103.3091L56.7116,103.8141C57.5839,102.6672,58.8324,100.8784,60.5616,97.6628C63.4675,92.2585,61.9015,87.9009,57.4294,87.0291C53.8514,86.3322,51.8459,88.7605,50.158,90.8305C49.9231,89.6934,48.9313,88.8375,47.735,88.7971C48.7094,87.6515,50.0754,86.2943,52.0656,84.9384C55.6415,82.4979,62.3495,82.1494,64.5855,88.5991C66.1929,93.2306,63.2609,99.6496,61.088,103.3091M78.7868,106.8696L78.7803,106.8696L78.7803,106.8696L78.1147,104.077L104.836,100.9396L110.8414,106.8683L78.7868,106.8696Z"/>
</svg>