<svg version="1.2" baseProfile="tiny" viewBox="0 0 56.918 43.498" xmlns:xlink="http://www.w3.org/1999/xlink" xmlns="http://www.w3.org/2000/svg">
<path style="fill:#ffffff;" d="M54.8872,20.331L48.1651,4.479L48.1617,4.6108L48.1617,2.5459L50.513,2.5459L50.513,1.0L46.5902,1.0L10.3249,1.0L6.4021,1.0L6.4021,2.5459L8.7528,2.5459L8.7528,4.479L2.0308,20.331L1.0,20.331L1.0,21.3619L3.1259,21.3619L3.1259,23.4881L5.5432,23.4881L5.5432,21.3619L8.7528,21.3619L8.7528,25.228L6.4078,25.4859L6.4021,27.0318L9.6988,27.0318L9.6988,28.3242L7.9691,28.3242L7.9691,32.0219L7.1119,32.0219L7.1119,29.5069L3.904,29.5069L3.904,39.1791L7.1119,39.1791L7.1119,36.664L7.9691,36.664L7.9691,40.3379L9.6988,40.3379L9.6988,41.7059L10.3238,41.7059L10.3238,42.4958L11.4502,42.4958L11.4502,41.7059L12.0182,41.7059L12.0182,40.34L44.881,40.34L44.881,41.7081L45.4963,41.7081L45.4963,42.498L46.5891,42.498L46.5891,41.7081L47.1998,41.7081L47.1998,40.34L48.9438,40.34L48.9438,33.1859L49.801,33.1859L49.801,32.0228L48.9438,32.0228L48.9438,28.325L47.1998,28.325L47.1998,27.0331L50.5119,27.0331L50.5062,25.4868L48.1612,25.2288L48.1612,21.3632L51.4049,21.3632L51.4049,23.4889L53.8222,23.4889L53.8222,21.3632L55.9168,21.3632L55.9168,20.3318L54.8872,20.3318M12.0188,28.3211L12.0188,26.823L11.4508,26.823L11.4508,22.1831L45.4968,22.1831L45.4968,26.823L44.8821,26.823L44.8821,28.3211L12.0188,28.3211Z"/>
</svg>