<svg version="1.2" baseProfile="tiny" viewBox="0 0 164.457 42.111" xmlns:xlink="http://www.w3.org/1999/xlink" xmlns="http://www.w3.org/2000/svg">
<path style="fill:#ffffff;" d="M109.2258,17.1501L109.2258,19.7981L119.5586,19.7981L119.5586,20.2849L120.0553,20.2849L120.0553,20.6462C119.7609,20.6462,119.5586,20.6462,119.5586,20.6462L119.5586,21.098C119.5586,21.098,119.6737,21.098,119.8694,21.098L119.8694,21.4871L120.6785,21.4871L120.6785,21.098C120.7098,21.098,120.7394,21.098,120.7723,21.098C121.4877,21.098,121.4877,21.5499,123.3247,21.5499C125.1616,21.5499,125.16,21.098,125.8754,21.098C125.951,21.098,126.0218,21.098,126.0925,21.098L126.0925,21.4871L126.9016,21.4871L126.9016,21.098C127.0217,21.098,127.0891,21.098,127.0891,21.098L127.0891,20.6462C127.0891,20.6462,126.9477,20.6462,126.7306,20.6462L126.7306,20.2849L127.0891,20.2849L127.0891,19.7981L148.4964,19.7981L148.4964,20.3038L148.9948,20.3038L148.9948,20.6651C148.7004,20.6651,148.4964,20.6651,148.4964,20.6651L148.4964,21.117C148.4964,21.117,148.6132,21.117,148.8073,21.117L148.8073,21.5061L149.6164,21.5061L149.6164,21.117C149.6476,21.117,149.6773,21.117,149.7101,21.117C150.4255,21.117,150.4255,21.5688,152.2625,21.5688C154.0979,21.5688,154.0979,21.117,154.8132,21.117C154.8889,21.117,154.9613,21.117,155.0303,21.117L155.0303,21.5061L155.8395,21.5061L155.8395,21.117C155.9595,21.117,156.0286,21.117,156.0286,21.117L156.0286,20.6651C156.0286,20.6651,155.8871,20.6651,155.6701,20.6651L155.6701,20.3038L156.0286,20.3038L156.0286,19.7981L158.673,19.7981L161.8471,17.9271L163.4587,17.9271L163.4587,17.1501L109.2258,17.1501M120.5207,20.647L120.5207,20.2861L122.7474,20.2861C122.6816,20.391,122.6422,20.514,122.6422,20.647C122.6422,20.8348,122.7195,21.005,122.8428,21.1292C121.6028,21.045,121.3874,20.647,120.8019,20.647C120.7065,20.647,120.6128,20.647,120.5207,20.647M126.2635,20.647C126.1303,20.647,125.9889,20.647,125.8441,20.647C125.2603,20.647,125.0432,21.0441,123.8032,21.1292C123.9266,21.005,124.0039,20.8348,124.0039,20.647C124.0039,20.514,123.9644,20.391,123.8986,20.2861L126.2635,20.2861L126.2635,20.647M149.4602,20.666L149.4602,20.3051L151.6853,20.3051C151.6195,20.4099,151.5817,20.5329,151.5817,20.666C151.5817,20.8542,151.6573,21.0239,151.7807,21.1469C150.5406,21.0631,150.3252,20.666,149.7397,20.666C149.6444,20.666,149.5523,20.666,149.4602,20.666M155.2014,20.666C155.0698,20.666,154.9284,20.666,154.7836,20.666C154.1998,20.666,153.9844,21.0631,152.7427,21.1469C152.8661,21.0239,152.9434,20.8542,152.9434,20.666C152.9434,20.5329,152.9023,20.4099,152.8365,20.3051L155.2014,20.3051L155.2014,20.666Z"/>
</svg>