<svg version="1.2" baseProfile="tiny" viewBox="0 0 56.918 43.498" xmlns:xlink="http://www.w3.org/1999/xlink" xmlns="http://www.w3.org/2000/svg">
<path style="fill:#ffffff;" d="M44.7689,20.6859L44.7689,18.5589L46.292,18.5589L46.292,17.6889L42.2707,17.6889L42.2707,18.5589L43.7938,18.5589L43.7938,20.6859L39.957,20.6859L39.957,18.5589L41.479,18.5589L41.479,17.6889L37.4589,17.6889L37.4589,18.5589L38.982,18.5589L38.982,20.6859L34.6568,20.6859L34.6568,18.5589L36.1799,18.5589L36.1799,17.6889L32.1598,17.6889L32.1598,18.5589L33.6829,18.5589L33.6829,20.6859L29.4488,20.6859L29.4488,18.5589L30.9719,18.5589L30.9719,17.6889L26.9512,17.6889L26.9512,18.5589L28.4738,18.5589L28.4738,20.6859L24.1492,20.6859L24.1492,18.5589L25.6717,18.5589L25.6717,17.6889L21.651,17.6889L21.651,18.5589L23.1742,18.5589L23.1742,20.6859L18.5149,20.6859L18.5149,18.5589L20.038,18.5589L20.038,17.6889L16.0167,17.6889L16.0167,18.5589L17.5399,18.5589L17.5399,20.6859L13.2152,20.6859L13.2152,18.5589L14.7378,18.5589L14.7378,17.6889L10.7171,17.6889L10.7171,18.5589L12.2402,18.5589L12.2402,20.6859L10.2908,20.6859L10.2908,22.184L46.6568,22.184L46.6568,20.6859Z"/>
</svg>