<svg version="1.2" baseProfile="tiny" viewBox="0 0 50.0 18.627" xmlns:xlink="http://www.w3.org/1999/xlink" xmlns="http://www.w3.org/2000/svg">
<path style="fill:#ffffff;" d="M10.293,16.1761L3.921,16.1761L3.921,15.686L3.921,15.686L3.431,15.686L3.431,16.1761L2.452,16.1761L2.452,15.686L2.452,15.686L1.961,15.686L1.961,16.1761L1.961,16.1761L0.98,16.1761L0.98,15.686L0.98,15.686L0.49,15.686L0.49,2.941L0.98,2.941L0.98,2.4509L1.96,2.4509L1.96,2.941L2.451,2.941L2.451,2.4509L3.43,2.4509L3.43,2.941L3.92,2.941L3.92,2.4509L10.293,2.4509L10.293,2.941L10.784,2.941L10.784,2.4509L17.647,2.4509L17.647,2.941L18.137,2.941L18.137,2.4509L19.117,2.4509L19.117,2.9021L19.117,15.7249L19.117,16.1761L18.137,16.1761L18.137,15.686L17.647,15.686L17.647,16.1761L10.784,16.1761L10.784,15.686L10.293,15.686M19.118,0.491L19.118,18.1369L45.589,18.1369L45.589,0.491L42.648,0.491L42.648,15.6869L21.569,15.6869L21.569,15.6869L21.569,0.491L19.118,0.491L19.118,0.491M49.509,4.412L47.058,4.412L47.058,2.733L45.588,2.195L45.588,16.4231L47.058,15.887L47.058,7.353L49.509,7.353L49.509,4.412M24.58,11.7929C23.939,11.7929,23.42,12.313,23.42,12.953C23.42,13.594,23.94,14.1141,24.58,14.1141C25.22,14.1141,25.741,13.594,25.741,12.953C25.741,12.313,25.22,11.7929,24.58,11.7929M39.811,11.7929C39.169,11.7929,38.65,12.313,38.65,12.953C38.65,13.594,39.17,14.1141,39.811,14.1141C40.452,14.1141,40.97,13.594,40.97,12.953C40.97,12.313,40.452,11.7929,39.811,11.7929Z"/>
</svg>