<svg version="1.2" baseProfile="tiny" viewBox="0 0 18.000 18.000" xmlns:xlink="http://www.w3.org/1999/xlink" xmlns="http://www.w3.org/2000/svg">
<path style="fill:#ffffff;" d="M9.003,0C4.038,0,0,4.038,0,9.003C0,13.964,4.038,18,9.003,18C13.964,18,18,13.964,18,9.003   C18,4.038,13.964,0,9.003,0z M9.003,16.734c-4.241,0-7.692-3.45-7.692-7.691c0-4.242,3.451-7.692,7.692-7.692   s7.692,3.45,7.692,7.692C16.695,13.284,13.244,16.734,9.003,16.734z M9.003,2.694c-3.502,0-6.348,2.848-6.348,6.349   c0,3.495,2.846,6.343,6.348,6.343c3.496,0,6.346-2.848,6.346-6.343C15.349,5.542,12.499,2.694,9.003,2.694z M9.981,13.168H8.093   V7.507h1.889V13.168z M9.019,6.408c-0.594,0-0.973-0.419-0.973-0.935c0-0.525,0.393-0.93,1.001-0.93c0.599,0,0.968,0.404,0.979,0.93   C10.026,5.989,9.646,6.408,9.019,6.408z"/>
</svg>